<?xml version="1.0" encoding="UTF-8" standalone="no"?>
<!-- Created with Inkscape (http://www.inkscape.org/) -->

<svg
   version="1.1"
   id="svg824"
   width="288"
   height="288"
   viewBox="0 0 288 288"
   sodipodi:docname="pixel_art_border.svg"
   inkscape:version="1.1.2 (b8e25be833, 2022-02-05)"
   xmlns:inkscape="http://www.inkscape.org/namespaces/inkscape"
   xmlns:sodipodi="http://sodipodi.sourceforge.net/DTD/sodipodi-0.dtd"
   xmlns="http://www.w3.org/2000/svg"
   xmlns:svg="http://www.w3.org/2000/svg">
  <defs
     id="defs828" />
  <sodipodi:namedview
     id="namedview826"
     pagecolor="#ffffff"
     bordercolor="#111111"
     borderopacity="1"
     inkscape:pageshadow="0"
     inkscape:pageopacity="0"
     inkscape:pagecheckerboard="1"
     showgrid="true"
     showguides="false"
     inkscape:guide-bbox="true"
     inkscape:zoom="4.6551196"
     inkscape:cx="97.419624"
     inkscape:cy="49.622785"
     inkscape:window-width="1920"
     inkscape:window-height="1017"
     inkscape:window-x="-8"
     inkscape:window-y="-8"
     inkscape:window-maximized="1"
     inkscape:current-layer="layer2">
    <sodipodi:guide
       position="0,288"
       orientation="-1,0"
       id="guide915"
       inkscape:label=""
       inkscape:locked="true"
       inkscape:color="rgb(0,0,255)" />
    <sodipodi:guide
       position="288,288"
       orientation="0,1"
       id="guide917"
       inkscape:label=""
       inkscape:locked="true"
       inkscape:color="rgb(0,0,255)" />
    <sodipodi:guide
       position="288,0"
       orientation="-1,0"
       id="guide937"
       inkscape:label=""
       inkscape:locked="true"
       inkscape:color="rgb(0,0,255)" />
    <sodipodi:guide
       position="0,0"
       orientation="0,1"
       id="guide939"
       inkscape:label=""
       inkscape:locked="true"
       inkscape:color="rgb(0,0,255)" />
    <inkscape:grid
       type="xygrid"
       id="grid1918"
       empspacing="16" />
  </sodipodi:namedview>
  <g
     inkscape:groupmode="layer"
     id="layer2"
     inkscape:label="Image 2"
     sodipodi:insensitive="true">
    <path
       id="path1971"
       style="fill:#ffffff;fill-opacity:1;stroke:none;stroke-width:1px;stroke-linecap:butt;stroke-linejoin:miter;stroke-opacity:1"
       d="M 5,1 V 2 H 4 V 3 H 3 V 4 H 2 V 5 H 1 V 6 H 0 V 7 H 1 V 8 H 0 v 1 h 1 v 1 h 1 v 1 h 1 v 1 H 4 V 5 h 6 V 8 H 9 V 6 H 5 v 5 h 1 v 1 h 1 v 1 h 1 v 1 h 1 v -1 h 1 v 1 h 1 v -1 h 1 v -1 h 1 v -1 h 1 v -1 h 1 V 9 h 1 V 8 H 15 V 7 h 1 V 6 H 15 V 5 H 14 V 4 H 13 V 3 h -1 v 7 H 6 V 7 h 2 v 2 h 3 V 4 H 10 V 3 H 9 V 2 H 8 V 1 H 7 V 2 H 6 V 1 Z M 5,3 H 6 V 4 H 5 Z M 7,3 H 8 V 4 H 7 Z M 2,6 H 3 V 7 H 2 Z m 11,0 h 1 V 7 H 13 Z M 2,8 H 3 V 9 H 2 Z m 11,0 h 1 v 1 h -1 z m -5,3 h 1 v 1 H 8 Z m 2,0 h 1 v 1 h -1 z" />
    <path
       id="path1971-8"
       style="fill:#ffffff;fill-opacity:1;stroke:none;stroke-width:1px;stroke-linecap:butt;stroke-linejoin:miter;stroke-opacity:1"
       d="m 5,257 v 1 H 4 v 1 H 3 v 1 H 2 v 1 H 1 v 1 H 0 v 1 h 1 v 1 H 0 v 1 h 1 v 1 h 1 v 1 h 1 v 1 h 1 v -7 h 6 v 3 H 9 v -2 H 5 v 5 h 1 v 1 h 1 v 1 h 1 v 1 h 1 v -1 h 1 v 1 h 1 v -1 h 1 v -1 h 1 v -1 h 1 v -1 h 1 v -1 h 1 v -1 h -1 v -1 h 1 v -1 h -1 v -1 h -1 v -1 h -1 v -1 h -1 v 7 H 6 v -3 h 2 v 2 h 3 v -5 h -1 v -1 H 9 v -1 H 8 v -1 H 7 v 1 H 6 v -1 z m 0,2 h 1 v 1 H 5 Z m 2,0 h 1 v 1 H 7 Z m -5,3 h 1 v 1 H 2 Z m 11,0 h 1 v 1 h -1 z m -11,2 h 1 v 1 H 2 Z m 11,0 h 1 v 1 h -1 z m -5,3 h 1 v 1 H 8 Z m 2,0 h 1 v 1 h -1 z" />
    <path
       id="path1971-6"
       style="fill:#ffffff;fill-opacity:1;stroke:none;stroke-width:1px;stroke-linecap:butt;stroke-linejoin:miter;stroke-opacity:1"
       d="m 213,2 v 1 h -1 v 1 h -1 v 1 h -1 v 1 h -1 v 1 h -1 v 1 h 1 v 1 h -1 v 1 h 1 v 1 h 1 v 1 h 1 v 1 h 1 V 6 h 6 v 3 h -1 V 7 h -4 v 5 h 1 v 1 h 1 v 1 h 1 v 1 h 1 v -1 h 1 v 1 h 1 v -1 h 1 v -1 h 1 v -1 h 1 v -1 h 1 v -1 h 1 V 9 h -1 V 8 h 1 V 7 h -1 V 6 h -1 V 5 h -1 V 4 h -1 v 7 h -6 V 8 h 2 v 2 h 3 V 5 h -1 V 4 h -1 V 3 h -1 V 2 h -1 v 1 h -1 V 2 Z m 0,2 h 1 v 1 h -1 z m 2,0 h 1 v 1 h -1 z m -5,3 h 1 v 1 h -1 z m 11,0 h 1 v 1 h -1 z m -11,2 h 1 v 1 h -1 z m 11,0 h 1 v 1 h -1 z m -5,3 h 1 v 1 h -1 z m 2,0 h 1 v 1 h -1 z" />
    <path
       id="path2710"
       style="fill:#ffffff;fill-opacity:1;stroke:none;stroke-width:1px;stroke-linecap:butt;stroke-linejoin:miter;stroke-opacity:1"
       d="m 1,17 v 2 h 1 v 2 h 2 v 2 h 2 v 7 H 5 V 29 H 4 v 1 H 2 V 28 H 3 V 27 H 2 V 26 H 1 v 5 h 6 v -8 h 2 v 8 h 6 v -5 h -1 v 1 h -1 v 1 h 1 v 2 h -2 v -1 h -1 v 1 h -1 v -7 h 2 v -2 h 2 v -2 h 1 v -2 z m 11,12 h 1 V 28 H 12 Z M 3,28 v 1 h 1 v -1 z m 2,-9 h 2 v 2 H 5 Z m 4,0 h 2 v 2 H 9 Z" />
    <path
       id="path3347"
       style="fill:#ffffff;fill-opacity:1;stroke:none;stroke-width:1px;stroke-linecap:butt;stroke-linejoin:miter;stroke-opacity:1"
       d="m 10,34 v 2 H 8 v 2 H 2 V 36 H 0 V 46 H 6 V 44 H 2 v -2 h 6 v 4 h 6 v -2 h -4 v -2 h 6 v -2 h -2 v -2 h 2 v -4 h -2 v 2 h -2 v -2 z m 0,4 h 2 v 2 h -2 z" />
    <path
       id="path3347-5"
       style="fill:#ffffff;fill-opacity:1;stroke:none;stroke-width:1px;stroke-linecap:butt;stroke-linejoin:miter;stroke-opacity:1"
       d="m 186,2 v 2 h -2 v 2 h -6 V 4 h -2 v 10 h 6 v -2 h -4 v -2 h 6 v 4 h 6 v -2 h -4 v -2 h 6 V 8 h -2 V 6 h 2 V 2 h -2 v 2 h -2 V 2 Z m 0,4 h 2 v 2 h -2 z" />
    <path
       id="path3619"
       style="fill:#ffffff;fill-opacity:1;stroke:none;stroke-width:1px;stroke-linecap:butt;stroke-linejoin:miter;stroke-opacity:1"
       d="m 6,49 v 2 H 5 v 1 H 4 v 1 H 3 v 1 H 2 v 1 H 1 v 1 h 2 v -1 h 1 v 1 h 1 v 1 h 1 v 1 h 1 v 1 H 6 v 1 H 5 v 1 H 4 v 2 h 1 v -1 h 1 v -1 h 4 v 1 h 1 v 1 h 1 V 61 H 11 V 60 H 10 V 59 H 9 v -1 h 1 v -1 h 1 v -1 h 1 v -1 h 1 v 1 h 2 V 55 H 14 V 54 H 13 V 53 H 12 V 52 H 11 V 51 H 10 V 49 H 9 v 2 H 7 v -2 z m 0,3 h 4 v 1 h 1 v 2 h -1 v 1 H 6 V 55 H 5 v -2 h 1 z m 1,1 v 2 h 2 v -2 z" />
    <path
       id="path3619-7"
       style="fill:#ffffff;fill-opacity:1;stroke:none;stroke-width:1px;stroke-linecap:butt;stroke-linejoin:miter;stroke-opacity:1"
       d="m 166,1 v 2 h -1 v 1 h -1 v 1 h -1 v 1 h -1 v 1 h -1 v 1 h 2 V 7 h 1 v 1 h 1 v 1 h 1 v 1 h 1 v 1 h -1 v 1 h -1 v 1 h -1 v 2 h 1 v -1 h 1 v -1 h 4 v 1 h 1 v 1 h 1 v -2 h -1 v -1 h -1 v -1 h -1 v -1 h 1 V 9 h 1 V 8 h 1 V 7 h 1 v 1 h 2 V 7 h -1 V 6 h -1 V 5 h -1 V 4 h -1 V 3 h -1 V 1 h -1 v 2 h -2 V 1 Z m 0,3 h 4 v 1 h 1 v 2 h -1 v 1 h -4 V 7 h -1 V 5 h 1 z m 1,1 v 2 h 2 V 5 Z" />
    <path
       id="path4452"
       style="fill:#ffffff;fill-opacity:1;stroke:none;stroke-width:1px;stroke-linecap:butt;stroke-linejoin:miter;stroke-opacity:1"
       d="m 0,64 v 1 h 3 v 1 H 0 v 1 h 1 v 1 H 0 v 2 h 1 v -1 h 1 v 1 h 1 v -1 h 1 v -1 h 3 v 1 h 1 v 1 h 1 v 1 H 8 V 70 H 5 v 1 H 4 v 1 H 2 V 71 H 1 v 1 H 0 v 3 h 1 v -2 h 1 v 3 H 0 v 4 h 1 v -3 h 1 v 3 h 1 v -1 h 1 v 1 H 6 V 79 H 5 V 78 H 6 V 77 H 5 V 76 H 4 v -3 h 1 v -1 h 1 v -1 h 1 v 1 H 6 v 3 h 1 v 1 h 1 v 2 H 7 v 1 h 1 v 1 h 3 V 79 H 9 v -1 h 3 v 2 h 4 v -1 h -3 v -1 h 3 v -1 h -1 v -1 h 1 v -2 h -1 v 1 h -1 v -1 h -1 v 1 h -1 v 1 H 9 V 75 H 8 V 74 H 7 v -1 h 1 v 1 h 3 v -1 h 1 v -1 h 2 v 1 h 1 v -1 h 1 v -3 h -1 v 2 h -1 v -3 h 2 v -4 h -1 v 3 h -1 v -3 h -1 v 1 h -1 v -1 h -2 v 1 h 1 v 1 h -1 v 1 h 1 v 1 h 1 v 3 h -1 v 1 h -1 v 1 H 9 v -1 h 1 V 69 H 9 V 68 H 8 V 66 H 9 V 65 H 8 V 64 H 5 v 1 h 2 v 1 H 4 v -2 z m 12,2 h 1 v 1 H 12 Z M 2,67 h 1 v 1 H 2 Z m 11,9 h 1 v 1 H 13 Z M 3,77 h 1 v 1 H 3 Z" />
    <path
       id="path4452-3"
       style="fill:#ffffff;fill-opacity:1;stroke:none;stroke-width:1px;stroke-linecap:butt;stroke-linejoin:miter;stroke-opacity:1"
       d="m 144,0 v 1 h 3 v 1 h -3 v 1 h 1 v 1 h -1 v 2 h 1 V 5 h 1 v 1 h 1 V 5 h 1 V 4 h 3 v 1 h 1 v 1 h 1 v 1 h -1 V 6 h -3 v 1 h -1 v 1 h -2 V 7 h -1 v 1 h -1 v 3 h 1 V 9 h 1 v 3 h -2 v 4 h 1 v -3 h 1 v 3 h 1 v -1 h 1 v 1 h 2 v -1 h -1 v -1 h 1 v -1 h -1 v -1 h -1 V 9 h 1 V 8 h 1 V 7 h 1 v 1 h -1 v 3 h 1 v 1 h 1 v 2 h -1 v 1 h 1 v 1 h 3 v -1 h -2 v -1 h 3 v 2 h 4 v -1 h -3 v -1 h 3 v -1 h -1 v -1 h 1 v -2 h -1 v 1 h -1 v -1 h -1 v 1 h -1 v 1 h -3 v -1 h -1 v -1 h -1 V 9 h 1 v 1 h 3 V 9 h 1 V 8 h 2 v 1 h 1 V 8 h 1 V 5 h -1 v 2 h -1 V 4 h 2 V 0 h -1 v 3 h -1 V 0 h -1 v 1 h -1 V 0 h -2 v 1 h 1 v 1 h -1 v 1 h 1 v 1 h 1 v 3 h -1 v 1 h -1 v 1 h -1 V 8 h 1 V 5 h -1 V 4 h -1 V 2 h 1 V 1 h -1 V 0 h -3 v 1 h 2 v 1 h -3 V 0 Z m 12,2 h 1 v 1 h -1 z m -10,1 h 1 v 1 h -1 z m 11,9 h 1 v 1 h -1 z m -10,1 h 1 v 1 h -1 z" />
    <path
       id="path4452-3-2"
       style="fill:#ffffff;fill-opacity:1;stroke:none;stroke-width:1px;stroke-linecap:butt;stroke-linejoin:miter;stroke-opacity:1"
       d="m 0,272 v 1 h 3 v 1 H 0 v 1 h 1 v 1 H 0 v 2 h 1 v -1 h 1 v 1 h 1 v -1 h 1 v -1 h 3 v 1 h 1 v 1 h 1 v 1 H 8 v -1 H 5 v 1 H 4 v 1 H 2 v -1 H 1 v 1 H 0 v 3 h 1 v -2 h 1 v 3 H 0 v 4 h 1 v -3 h 1 v 3 h 1 v -1 h 1 v 1 h 2 v -1 H 5 v -1 h 1 v -1 H 5 v -1 H 4 v -3 h 1 v -1 h 1 v -1 h 1 v 1 H 6 v 3 h 1 v 1 h 1 v 2 H 7 v 1 h 1 v 1 h 3 v -1 H 9 v -1 h 3 v 2 h 4 v -1 h -3 v -1 h 3 v -1 h -1 v -1 h 1 v -2 h -1 v 1 h -1 v -1 h -1 v 1 h -1 v 1 H 9 v -1 H 8 v -1 H 7 v -1 h 1 v 1 h 3 v -1 h 1 v -1 h 2 v 1 h 1 v -1 h 1 v -3 h -1 v 2 h -1 v -3 h 2 v -4 h -1 v 3 h -1 v -3 h -1 v 1 h -1 v -1 h -2 v 1 h 1 v 1 h -1 v 1 h 1 v 1 h 1 v 3 h -1 v 1 h -1 v 1 H 9 v -1 h 1 v -3 H 9 v -1 H 8 v -2 h 1 v -1 H 8 v -1 H 5 v 1 h 2 v 1 H 4 v -2 z m 12,2 h 1 v 1 h -1 z m -10,1 h 1 v 1 H 2 Z m 11,9 h 1 v 1 h -1 z m -10,1 h 1 v 1 H 3 Z" />
    <path
       id="path4452-8"
       style="fill:#ffffff;fill-opacity:1;stroke:none;stroke-width:1px;stroke-linecap:butt;stroke-linejoin:miter;stroke-opacity:1"
       d="m 272,80 v 1 h 3 v 1 h -3 v 1 h 1 v 1 h -1 v 2 h 1 v -1 h 1 v 1 h 1 v -1 h 1 v -1 h 3 v 1 h 1 v 1 h 1 v 1 h -1 v -1 h -3 v 1 h -1 v 1 h -2 v -1 h -1 v 1 h -1 v 3 h 1 v -2 h 1 v 3 h -2 v 4 h 1 v -3 h 1 v 3 h 1 v -1 h 1 v 1 h 2 v -1 h -1 v -1 h 1 v -1 h -1 v -1 h -1 v -3 h 1 v -1 h 1 v -1 h 1 v 1 h -1 v 3 h 1 v 1 h 1 v 2 h -1 v 1 h 1 v 1 h 3 v -1 h -2 v -1 h 3 v 2 h 4 v -1 h -3 v -1 h 3 v -1 h -1 v -1 h 1 v -2 h -1 v 1 h -1 v -1 h -1 v 1 h -1 v 1 h -3 v -1 h -1 v -1 h -1 v -1 h 1 v 1 h 3 v -1 h 1 v -1 h 2 v 1 h 1 v -1 h 1 v -3 h -1 v 2 h -1 v -3 h 2 v -4 h -1 v 3 h -1 v -3 h -1 v 1 h -1 v -1 h -2 v 1 h 1 v 1 h -1 v 1 h 1 v 1 h 1 v 3 h -1 v 1 h -1 v 1 h -1 v -1 h 1 v -3 h -1 v -1 h -1 v -2 h 1 v -1 h -1 v -1 h -3 v 1 h 2 v 1 h -3 v -2 z m 12,2 h 1 v 1 h -1 z m -10,1 h 1 v 1 h -1 z m 11,9 h 1 v 1 h -1 z m -10,1 h 1 v 1 h -1 z" />
    <path
       id="path4452-4"
       style="fill:#ffffff;fill-opacity:1;stroke:none;stroke-width:1px;stroke-linecap:butt;stroke-linejoin:miter;stroke-opacity:1"
       d="m 256,272 v 1 h 3 v 1 h -3 v 1 h 1 v 1 h -1 v 2 h 1 v -1 h 1 v 1 h 1 v -1 h 1 v -1 h 3 v 1 h 1 v 1 h 1 v 1 h -1 v -1 h -3 v 1 h -1 v 1 h -2 v -1 h -1 v 1 h -1 v 3 h 1 v -2 h 1 v 3 h -2 v 4 h 1 v -3 h 1 v 3 h 1 v -1 h 1 v 1 h 2 v -1 h -1 v -1 h 1 v -1 h -1 v -1 h -1 v -3 h 1 v -1 h 1 v -1 h 1 v 1 h -1 v 3 h 1 v 1 h 1 v 2 h -1 v 1 h 1 v 1 h 3 v -1 h -2 v -1 h 3 v 2 h 4 v -1 h -3 v -1 h 3 v -1 h -1 v -1 h 1 v -2 h -1 v 1 h -1 v -1 h -1 v 1 h -1 v 1 h -3 v -1 h -1 v -1 h -1 v -1 h 1 v 1 h 3 v -1 h 1 v -1 h 2 v 1 h 1 v -1 h 1 v -3 h -1 v 2 h -1 v -3 h 2 v -4 h -1 v 3 h -1 v -3 h -1 v 1 h -1 v -1 h -2 v 1 h 1 v 1 h -1 v 1 h 1 v 1 h 1 v 3 h -1 v 1 h -1 v 1 h -1 v -1 h 1 v -3 h -1 v -1 h -1 v -2 h 1 v -1 h -1 v -1 h -3 v 1 h 2 v 1 h -3 v -2 z m 12,2 h 1 v 1 h -1 z m -10,1 h 1 v 1 h -1 z m 11,9 h 1 v 1 h -1 z m -10,1 h 1 v 1 h -1 z" />
    <path
       id="path4957"
       style="fill:#ffffff;fill-opacity:1;stroke:none;stroke-width:1px;stroke-linecap:butt;stroke-linejoin:miter;stroke-opacity:1"
       d="m 1,84 v 10 h 2 v 4 H 1 v 10 h 5 v -2 H 4 v -2 H 2 v -4 h 3 v 2 h 2 v 2 h 2 v -2 h 2 v -2 h 3 v 4 h -2 v 2 h -2 v 2 h 5 V 98 h -2 v -4 h 2 V 84 h -5 v 2 h 2 v 2 h 2 v 4 H 11 V 90 H 9 V 88 H 7 v 2 H 5 v 2 H 2 v -4 h 2 v -2 h 2 v -2 z m 6,8 h 2 v 2 H 7 Z m 0,6 h 2 v 2 H 7 Z" />
    <path
       id="path4957-2"
       style="fill:#ffffff;fill-opacity:1;stroke:none;stroke-width:1px;stroke-linecap:butt;stroke-linejoin:miter;stroke-opacity:1"
       d="m 273,52 v 10 h 2 v 4 h -2 v 10 h 5 v -2 h -2 v -2 h -2 v -4 h 3 v 2 h 2 v 2 h 2 v -2 h 2 v -2 h 3 v 4 h -2 v 2 h -2 v 2 h 5 V 66 h -2 v -4 h 2 V 52 h -5 v 2 h 2 v 2 h 2 v 4 h -3 v -2 h -2 v -2 h -2 v 2 h -2 v 2 h -3 v -4 h 2 v -2 h 2 v -2 z m 6,8 h 2 v 2 h -2 z m 0,6 h 2 v 2 h -2 z" />
    <path
       id="path12405"
       style="fill:#ffffff;fill-opacity:1;stroke:none;stroke-width:1px;stroke-linecap:butt;stroke-linejoin:miter;stroke-opacity:1"
       d="m 3,112 v 1 H 2 v 3 h 1 v 1 h 3 v -1 h 1 v -1 h 2 v 4 H 8 v 1 H 7 v -1 H 6 v -1 H 5 v 1 H 4 v 1 H 3 v 1 H 2 v 1 h 1 v 1 H 2 v 1 h 3 v 3 H 3 v -1 h 1 v -1 H 2 v 3 h 4 v -3 h 1 v 3 h 1 v -4 h 2 v 4 h 1 v -4 h 2 v 4 h 1 v -7 h -1 v -1 h -1 v -1 l 1,-1 h 1 v -3 h -1 v -1 h -1 v -1 h -1 v -1 H 8 v 1 H 7 v 1 H 6 v 1 H 5 v 1 H 4 v -1 H 3 v -1 h 1 v -1 h 1 v -1 z m 6,1 h 1 v 1 H 9 Z m 2,2 h 1 v 1 h 1 v 1 h -1 v 1 h -1 v -1 h -1 v -1 h 1 z m -6,5 h 1 v 1 h 1 v 1 H 6 v 1 H 5 v -1 H 4 v -1 h 1 z m 0,1 v 1 h 1 v -1 z m 3,0 h 2 v 1 h 2 v 1 h -2 v -1 H 8 Z" />
    <path
       id="path12405-5"
       style="fill:#ffffff;fill-opacity:1;stroke:none;stroke-width:1px;stroke-linecap:butt;stroke-linejoin:miter;stroke-opacity:1"
       d="m 99,0 v 1 h -1 v 3 h 1 v 1 h 3 V 4 h 1 V 3 h 2 v 4 h -1 v 1 h -1 V 7 h -1 V 6 h -1 v 1 h -1 v 1 h -1 v 1 h -1 v 1 h 1 v 1 h -1 v 1 h 3 v 3 h -2 v -1 h 1 v -1 h -2 v 3 h 4 v -3 h 1 v 3 h 1 v -4 h 2 v 4 h 1 v -4 h 2 v 4 h 1 V 9 h -1 V 8 h -1 V 7 l 1,-1 h 1 V 3 h -1 V 2 h -1 V 1 h -1 V 0 h -3 v 1 h -1 v 1 h -1 v 1 h -1 v 1 h -1 V 3 H 99 V 2 h 1 V 1 h 1 V 0 Z m 6,1 h 1 v 1 h -1 z m 2,2 h 1 v 1 h 1 v 1 h -1 v 1 h -1 V 5 h -1 V 4 h 1 z m -6,5 h 1 v 1 h 1 v 1 h -1 v 1 h -1 v -1 h -1 V 9 h 1 z m 0,1 v 1 h 1 V 9 Z m 3,0 h 2 v 1 h 2 v 1 h -2 v -1 h -2 z" />
    <path
       id="path12405-4"
       style="fill:#ffffff;fill-opacity:1;stroke:none;stroke-width:1px;stroke-linecap:butt;stroke-linejoin:miter;stroke-opacity:1"
       d="m 275,32 v 1 h -1 v 3 h 1 v 1 h 3 v -1 h 1 v -1 h 2 v 4 h -1 v 1 h -1 v -1 h -1 v -1 h -1 v 1 h -1 v 1 h -1 v 1 h -1 v 1 h 1 v 1 h -1 v 1 h 3 v 3 h -2 v -1 h 1 v -1 h -2 v 3 h 4 v -3 h 1 v 3 h 1 v -4 h 2 v 4 h 1 v -4 h 2 v 4 h 1 v -7 h -1 v -1 h -1 v -1 l 1,-1 h 1 v -3 h -1 v -1 h -1 v -1 h -1 v -1 h -3 v 1 h -1 v 1 h -1 v 1 h -1 v 1 h -1 v -1 h -1 v -1 h 1 v -1 h 1 v -1 z m 6,1 h 1 v 1 h -1 z m 2,2 h 1 v 1 h 1 v 1 h -1 v 1 h -1 v -1 h -1 v -1 h 1 z m -6,5 h 1 v 1 h 1 v 1 h -1 v 1 h -1 v -1 h -1 v -1 h 1 z m 0,1 v 1 h 1 v -1 z m 3,0 h 2 v 1 h 2 v 1 h -2 v -1 h -2 z" />
    <path
       id="path12405-3"
       style="fill:#ffffff;fill-opacity:1;stroke:none;stroke-width:1px;stroke-linecap:butt;stroke-linejoin:miter;stroke-opacity:1"
       d="m 51,272 v 1 h -1 v 3 h 1 v 1 h 3 v -1 h 1 v -1 h 2 v 4 h -1 v 1 h -1 v -1 h -1 v -1 h -1 v 1 h -1 v 1 h -1 v 1 h -1 v 1 h 1 v 1 h -1 v 1 h 3 v 3 h -2 v -1 h 1 v -1 h -2 v 3 h 4 v -3 h 1 v 3 h 1 v -4 h 2 v 4 h 1 v -4 h 2 v 4 h 1 v -7 h -1 v -1 h -1 v -1 l 1,-1 h 1 v -3 h -1 v -1 h -1 v -1 h -1 v -1 h -3 v 1 h -1 v 1 h -1 v 1 h -1 v 1 h -1 v -1 h -1 v -1 h 1 v -1 h 1 v -1 z m 6,1 h 1 v 1 h -1 z m 2,2 h 1 v 1 h 1 v 1 h -1 v 1 h -1 v -1 h -1 v -1 h 1 z m -6,5 h 1 v 1 h 1 v 1 h -1 v 1 h -1 v -1 h -1 v -1 h 1 z m 0,1 v 1 h 1 v -1 z m 3,0 h 2 v 1 h 2 v 1 h -2 v -1 h -2 z" />
    <path
       id="rect13366"
       style="fill:#ffffff;fill-opacity:1;stroke:none;stroke-width:0.5;stroke-linecap:square;stroke-linejoin:round;stroke-opacity:1"
       d="m 0,128 v 16 h 16 v -16 z m 1,1 h 6 v 3 h 2 v -3 h 6 v 4 h -1 v -1 h -1 v -1 h -1 v -1 h -2 v 1 h 1 v 1 h 1 v 1 h 1 v 1 h 1 v 1 h 1 v 8 H 1 v -8 h 1 v -1 h 1 v -1 h 1 v -1 h 1 v -1 h 1 v -1 H 4 v 1 H 3 v 1 H 2 v 1 H 1 Z m 5,4 v 1 H 5 v 1 h 2 v -2 z m 3,0 v 2 h 2 v -1 h -1 v -1 z m -7,3 v 6 h 5 v -4 H 4 v 2 h 1 v -1 h 1 v 2 H 3 v -4 h 10 v 4 h -3 v -2 h 1 v 1 h 1 v -2 H 9 v 4 h 5 v -6 z" />
    <path
       id="rect13366-7"
       style="fill:#ffffff;fill-opacity:1;stroke:none;stroke-width:0.5;stroke-linecap:square;stroke-linejoin:round;stroke-opacity:1"
       d="M 80,0 V 16 H 96 V 0 Z m 1,1 h 6 v 3 h 2 V 1 h 6 V 5 H 94 V 4 H 93 V 3 H 92 V 2 h -2 v 1 h 1 v 1 h 1 v 1 h 1 v 1 h 1 v 1 h 1 v 8 H 81 V 7 h 1 V 6 h 1 V 5 h 1 V 4 h 1 V 3 h 1 V 2 h -2 v 1 h -1 v 1 h -1 v 1 h -1 z m 5,4 v 1 h -1 v 1 h 2 V 5 Z m 3,0 v 2 h 2 V 6 H 90 V 5 Z m -7,3 v 6 h 5 v -4 h -3 v 2 h 1 v -1 h 1 v 2 H 83 V 9 h 10 v 4 h -3 v -2 h 1 v 1 h 1 v -2 h -3 v 4 h 5 V 8 Z" />
    <path
       id="rect13366-0"
       style="fill:#ffffff;fill-opacity:1;stroke:none;stroke-width:0.5;stroke-linecap:square;stroke-linejoin:round;stroke-opacity:1"
       d="m 272,16 v 16 h 16 V 16 Z m 1,1 h 6 v 3 h 2 v -3 h 6 v 4 h -1 v -1 h -1 v -1 h -1 v -1 h -2 v 1 h 1 v 1 h 1 v 1 h 1 v 1 h 1 v 1 h 1 v 8 h -14 v -8 h 1 v -1 h 1 v -1 h 1 v -1 h 1 v -1 h 1 v -1 h -2 v 1 h -1 v 1 h -1 v 1 h -1 z m 5,4 v 1 h -1 v 1 h 2 v -2 z m 3,0 v 2 h 2 v -1 h -1 v -1 z m -7,3 v 6 h 5 v -4 h -3 v 2 h 1 v -1 h 1 v 2 h -3 v -4 h 10 v 4 h -3 v -2 h 1 v 1 h 1 v -2 h -3 v 4 h 5 v -6 z" />
    <path
       id="rect13366-4"
       style="fill:#ffffff;fill-opacity:1;stroke:none;stroke-width:0.5;stroke-linecap:square;stroke-linejoin:round;stroke-opacity:1"
       d="m 64,272 v 16 h 16 v -16 z m 1,1 h 6 v 3 h 2 v -3 h 6 v 4 h -1 v -1 h -1 v -1 h -1 v -1 h -2 v 1 h 1 v 1 h 1 v 1 h 1 v 1 h 1 v 1 h 1 v 8 H 65 v -8 h 1 v -1 h 1 v -1 h 1 v -1 h 1 v -1 h 1 v -1 h -2 v 1 h -1 v 1 h -1 v 1 h -1 z m 5,4 v 1 h -1 v 1 h 2 v -2 z m 3,0 v 2 h 2 v -1 h -1 v -1 z m -7,3 v 6 h 5 v -4 h -3 v 2 h 1 v -1 h 1 v 2 h -3 v -4 h 10 v 4 h -3 v -2 h 1 v 1 h 1 v -2 h -3 v 4 h 5 v -6 z" />
    <path
       id="rect13366-4-7"
       style="fill:#ffffff;fill-opacity:1;stroke:none;stroke-width:0.5;stroke-linecap:square;stroke-linejoin:round;stroke-opacity:1"
       d="m 272,272 v 16 h 16 v -16 z m 1,1 h 6 v 3 h 2 v -3 h 6 v 4 h -1 v -1 h -1 v -1 h -1 v -1 h -2 v 1 h 1 v 1 h 1 v 1 h 1 v 1 h 1 v 1 h 1 v 8 h -14 v -8 h 1 v -1 h 1 v -1 h 1 v -1 h 1 v -1 h 1 v -1 h -2 v 1 h -1 v 1 h -1 v 1 h -1 z m 5,4 v 1 h -1 v 1 h 2 v -2 z m 3,0 v 2 h 2 v -1 h -1 v -1 z m -7,3 v 6 h 5 v -4 h -3 v 2 h 1 v -1 h 1 v 2 h -3 v -4 h 10 v 4 h -3 v -2 h 1 v 1 h 1 v -2 h -3 v 4 h 5 v -6 z" />
    <path
       id="path1971-6-2"
       style="fill:#ffffff;fill-opacity:1;stroke:none;stroke-width:1px;stroke-linecap:butt;stroke-linejoin:miter;stroke-opacity:1"
       d="m 277,146 v 1 h -1 v 1 h -1 v 1 h -1 v 1 h -1 v 1 h -1 v 1 h 1 v 1 h -1 v 1 h 1 v 1 h 1 v 1 h 1 v 1 h 1 v -7 h 6 v 3 h -1 v -2 h -4 v 5 h 1 v 1 h 1 v 1 h 1 v 1 h 1 v -1 h 1 v 1 h 1 v -1 h 1 v -1 h 1 v -1 h 1 v -1 h 1 v -1 h 1 v -1 h -1 v -1 h 1 v -1 h -1 v -1 h -1 v -1 h -1 v -1 h -1 v 7 h -6 v -3 h 2 v 2 h 3 v -5 h -1 v -1 h -1 v -1 h -1 v -1 h -1 v 1 h -1 v -1 z m 0,2 h 1 v 1 h -1 z m 2,0 h 1 v 1 h -1 z m -5,3 h 1 v 1 h -1 z m 11,0 h 1 v 1 h -1 z m -11,2 h 1 v 1 h -1 z m 11,0 h 1 v 1 h -1 z m -5,3 h 1 v 1 h -1 z m 2,0 h 1 v 1 h -1 z" />
    <path
       id="path1971-6-26"
       style="fill:#ffffff;fill-opacity:1;stroke:none;stroke-width:1px;stroke-linecap:butt;stroke-linejoin:miter;stroke-opacity:1"
       d="m 197,274 v 1 h -1 v 1 h -1 v 1 h -1 v 1 h -1 v 1 h -1 v 1 h 1 v 1 h -1 v 1 h 1 v 1 h 1 v 1 h 1 v 1 h 1 v -7 h 6 v 3 h -1 v -2 h -4 v 5 h 1 v 1 h 1 v 1 h 1 v 1 h 1 v -1 h 1 v 1 h 1 v -1 h 1 v -1 h 1 v -1 h 1 v -1 h 1 v -1 h 1 v -1 h -1 v -1 h 1 v -1 h -1 v -1 h -1 v -1 h -1 v -1 h -1 v 7 h -6 v -3 h 2 v 2 h 3 v -5 h -1 v -1 h -1 v -1 h -1 v -1 h -1 v 1 h -1 v -1 z m 0,2 h 1 v 1 h -1 z m 2,0 h 1 v 1 h -1 z m -5,3 h 1 v 1 h -1 z m 11,0 h 1 v 1 h -1 z m -11,2 h 1 v 1 h -1 z m 11,0 h 1 v 1 h -1 z m -5,3 h 1 v 1 h -1 z m 2,0 h 1 v 1 h -1 z" />
    <path
       id="path1051"
       style="fill:#ffffff;fill-opacity:1;stroke:none;stroke-width:1px;stroke-linecap:butt;stroke-linejoin:miter;stroke-opacity:1"
       d="m 3,145 v 1 H 2 v 1 H 1 v 2 h 1 v -1 h 1 v -1 h 2 v 2 H 4 v 1 H 3 v 1 H 1 v 1 H 0 v 2 h 1 v 1 h 1 v 1 h 1 v 1 h 1 v 1 h 1 v 1 h 6 v -1 h 1 v -1 h 1 v -1 h 1 v -1 h 1 v -1 h 1 v -2 h -1 v -1 h -2 v -1 h -1 v -1 h -1 v -2 h 2 v 1 h 1 v 1 h 1 v -2 h -1 v -1 h -1 v -1 h -2 v 1 h -1 v 1 H 9 v 2 H 7 v -2 H 6 v -1 H 5 v -1 z m 1,6 h 2 v 1 h 1 v 2 H 6 v 1 H 4 v -1 H 3 v -2 h 1 z m 6,0 h 2 v 1 h 1 v 2 h -1 v 1 h -2 v -1 H 9 v -2 h 1 z" />
    <path
       id="path1051-9"
       style="fill:#ffffff;fill-opacity:1;stroke:none;stroke-width:1px;stroke-linecap:butt;stroke-linejoin:miter;stroke-opacity:1"
       d="m 67,1 v 1 h -1 v 1 h -1 v 2 h 1 V 4 h 1 V 3 h 2 v 2 h -1 v 1 h -1 v 1 h -2 v 1 h -1 v 2 h 1 v 1 h 1 v 1 h 1 v 1 h 1 v 1 h 1 v 1 h 6 v -1 h 1 v -1 h 1 v -1 h 1 v -1 h 1 v -1 h 1 V 8 H 79 V 7 H 77 V 6 H 76 V 5 H 75 V 3 h 2 v 1 h 1 v 1 h 1 V 3 H 78 V 2 H 77 V 1 H 75 V 2 H 74 V 3 H 73 V 5 H 71 V 3 H 70 V 2 H 69 V 1 Z m 1,6 h 2 v 1 h 1 v 2 h -1 v 1 H 68 V 10 H 67 V 8 h 1 z m 6,0 h 2 v 1 h 1 v 2 h -1 v 1 H 74 V 10 H 73 V 8 h 1 z" />
    <path
       id="path1051-4"
       style="fill:#ffffff;fill-opacity:1;stroke:none;stroke-width:1px;stroke-linecap:butt;stroke-linejoin:miter;stroke-opacity:1"
       d="m 275,257 v 1 h -1 v 1 h -1 v 2 h 1 v -1 h 1 v -1 h 2 v 2 h -1 v 1 h -1 v 1 h -2 v 1 h -1 v 2 h 1 v 1 h 1 v 1 h 1 v 1 h 1 v 1 h 1 v 1 h 6 v -1 h 1 v -1 h 1 v -1 h 1 v -1 h 1 v -1 h 1 v -2 h -1 v -1 h -2 v -1 h -1 v -1 h -1 v -2 h 2 v 1 h 1 v 1 h 1 v -2 h -1 v -1 h -1 v -1 h -2 v 1 h -1 v 1 h -1 v 2 h -2 v -2 h -1 v -1 h -1 v -1 z m 1,6 h 2 v 1 h 1 v 2 h -1 v 1 h -2 v -1 h -1 v -2 h 1 z m 6,0 h 2 v 1 h 1 v 2 h -1 v 1 h -2 v -1 h -1 v -2 h 1 z" />
    <path
       id="path1051-43"
       style="fill:#ffffff;fill-opacity:1;stroke:none;stroke-width:1px;stroke-linecap:butt;stroke-linejoin:miter;stroke-opacity:1"
       d="m 83,273 v 1 h -1 v 1 h -1 v 2 h 1 v -1 h 1 v -1 h 2 v 2 h -1 v 1 h -1 v 1 h -2 v 1 h -1 v 2 h 1 v 1 h 1 v 1 h 1 v 1 h 1 v 1 h 1 v 1 h 6 v -1 h 1 v -1 h 1 v -1 h 1 v -1 h 1 v -1 h 1 v -2 h -1 v -1 h -2 v -1 h -1 v -1 h -1 v -2 h 2 v 1 h 1 v 1 h 1 v -2 h -1 v -1 h -1 v -1 h -2 v 1 h -1 v 1 h -1 v 2 h -2 v -2 h -1 v -1 h -1 v -1 z m 1,6 h 2 v 1 h 1 v 2 h -1 v 1 h -2 v -1 h -1 v -2 h 1 z m 6,0 h 2 v 1 h 1 v 2 h -1 v 1 h -2 v -1 h -1 v -2 h 1 z" />
    <path
       id="path2710-4"
       style="fill:#ffffff;fill-opacity:1;stroke:none;stroke-width:1px;stroke-linecap:butt;stroke-linejoin:miter;stroke-opacity:1"
       d="m 193,1 v 2 h 1 v 2 h 2 v 2 h 2 v 7 h -1 v -1 h -1 v 1 h -2 v -2 h 1 v -1 h -1 v -1 h -1 v 5 h 6 V 7 h 2 v 8 h 6 v -5 h -1 v 1 h -1 v 1 h 1 v 2 h -2 v -1 h -1 v 1 h -1 V 7 h 2 V 5 h 2 V 3 h 1 V 1 Z m 11,12 h 1 v -1 h -1 z m -9,-1 v 1 h 1 v -1 z m 2,-9 h 2 v 2 h -2 z m 4,0 h 2 v 2 h -2 z" />
    <path
       id="path2710-8"
       style="fill:#ffffff;fill-opacity:1;stroke:none;stroke-width:1px;stroke-linecap:butt;stroke-linejoin:miter;stroke-opacity:1"
       d="m 273,129 v 2 h 1 v 2 h 2 v 2 h 2 v 7 h -1 v -1 h -1 v 1 h -2 v -2 h 1 v -1 h -1 v -1 h -1 v 5 h 6 v -8 h 2 v 8 h 6 v -5 h -1 v 1 h -1 v 1 h 1 v 2 h -2 v -1 h -1 v 1 h -1 v -7 h 2 v -2 h 2 v -2 h 1 v -2 z m 11,12 h 1 v -1 h -1 z m -9,-1 v 1 h 1 v -1 z m 2,-9 h 2 v 2 h -2 z m 4,0 h 2 v 2 h -2 z" />
    <path
       id="path2710-0"
       style="fill:#ffffff;fill-opacity:1;stroke:none;stroke-width:1px;stroke-linecap:butt;stroke-linejoin:miter;stroke-opacity:1"
       d="m 209,273 v 2 h 1 v 2 h 2 v 2 h 2 v 7 h -1 v -1 h -1 v 1 h -2 v -2 h 1 v -1 h -1 v -1 h -1 v 5 h 6 v -8 h 2 v 8 h 6 v -5 h -1 v 1 h -1 v 1 h 1 v 2 h -2 v -1 h -1 v 1 h -1 v -7 h 2 v -2 h 2 v -2 h 1 v -2 z m 11,12 h 1 v -1 h -1 z m -9,-1 v 1 h 1 v -1 z m 2,-9 h 2 v 2 h -2 z m 4,0 h 2 v 2 h -2 z" />
    <path
       id="path3347-6"
       style="fill:#ffffff;fill-opacity:1;stroke:none;stroke-width:1px;stroke-linecap:butt;stroke-linejoin:miter;stroke-opacity:1"
       d="m 282,114 v 2 h -2 v 2 h -6 v -2 h -2 v 10 h 6 v -2 h -4 v -2 h 6 v 4 h 6 v -2 h -4 v -2 h 6 v -2 h -2 v -2 h 2 v -4 h -2 v 2 h -2 v -2 z m 0,4 h 2 v 2 h -2 z" />
    <path
       id="path3347-8"
       style="fill:#ffffff;fill-opacity:1;stroke:none;stroke-width:1px;stroke-linecap:butt;stroke-linejoin:miter;stroke-opacity:1"
       d="m 234,274 v 2 h -2 v 2 h -6 v -2 h -2 v 10 h 6 v -2 h -4 v -2 h 6 v 4 h 6 v -2 h -4 v -2 h 6 v -2 h -2 v -2 h 2 v -4 h -2 v 2 h -2 v -2 z m 0,4 h 2 v 2 h -2 z" />
    <path
       id="path3619-0"
       style="fill:#ffffff;fill-opacity:1;stroke:none;stroke-width:1px;stroke-linecap:butt;stroke-linejoin:miter;stroke-opacity:1"
       d="m 278,97 v 2 h -1 v 1 h -1 v 1 h -1 v 1 h -1 v 1 h -1 v 1 h 2 v -1 h 1 v 1 h 1 v 1 h 1 v 1 h 1 v 1 h -1 v 1 h -1 v 1 h -1 v 2 h 1 v -1 h 1 v -1 h 4 v 1 h 1 v 1 h 1 v -2 h -1 v -1 h -1 v -1 h -1 v -1 h 1 v -1 h 1 v -1 h 1 v -1 h 1 v 1 h 2 v -1 h -1 v -1 h -1 v -1 h -1 v -1 h -1 v -1 h -1 v -2 h -1 v 2 h -2 v -2 z m 0,3 h 4 v 1 h 1 v 2 h -1 v 1 h -4 v -1 h -1 v -2 h 1 z m 1,1 v 2 h 2 v -2 z" />
    <path
       id="path3619-9"
       style="fill:#ffffff;fill-opacity:1;stroke:none;stroke-width:1px;stroke-linecap:butt;stroke-linejoin:miter;stroke-opacity:1"
       d="m 246,273 v 2 h -1 v 1 h -1 v 1 h -1 v 1 h -1 v 1 h -1 v 1 h 2 v -1 h 1 v 1 h 1 v 1 h 1 v 1 h 1 v 1 h -1 v 1 h -1 v 1 h -1 v 2 h 1 v -1 h 1 v -1 h 4 v 1 h 1 v 1 h 1 v -2 h -1 v -1 h -1 v -1 h -1 v -1 h 1 v -1 h 1 v -1 h 1 v -1 h 1 v 1 h 2 v -1 h -1 v -1 h -1 v -1 h -1 v -1 h -1 v -1 h -1 v -2 h -1 v 2 h -2 v -2 z m 0,3 h 4 v 1 h 1 v 2 h -1 v 1 h -4 v -1 h -1 v -2 h 1 z m 1,1 v 2 h 2 v -2 z" />
    <path
       id="path4957-9"
       style="fill:#ffffff;fill-opacity:1;stroke:none;stroke-width:1px;stroke-linecap:butt;stroke-linejoin:miter;stroke-opacity:1"
       d="m 116,15 h 10 v -2 h 4 v 2 h 10 v -5 h -2 v 2 h -2 v 2 h -4 v -3 h 2 V 9 h 2 V 7 h -2 V 5 h -2 V 2 h 4 v 2 h 2 v 2 h 2 V 1 h -10 v 2 h -4 V 1 h -10 v 5 h 2 V 4 h 2 V 2 h 4 v 3 h -2 v 2 h -2 v 2 h 2 v 2 h 2 v 3 h -4 v -2 h -2 v -2 h -2 z m 8,-6 V 7 h 2 v 2 z m 6,0 V 7 h 2 v 2 z" />
    <path
       id="path4957-9-6"
       style="fill:#ffffff;fill-opacity:1;stroke:none;stroke-width:1px;stroke-linecap:butt;stroke-linejoin:miter;stroke-opacity:1"
       d="m 20,287 h 10 v -2 h 4 v 2 h 10 v -5 h -2 v 2 h -2 v 2 h -4 v -3 h 2 v -2 h 2 v -2 h -2 v -2 h -2 v -3 h 4 v 2 h 2 v 2 h 2 v -5 H 34 v 2 h -4 v -2 H 20 v 5 h 2 v -2 h 2 v -2 h 4 v 3 h -2 v 2 h -2 v 2 h 2 v 2 h 2 v 3 h -4 v -2 h -2 v -2 h -2 z m 8,-6 v -2 h 2 v 2 z m 6,0 v -2 h 2 v 2 z" />
    <path
       id="path2416"
       style="fill:#ffffff;fill-opacity:1;stroke:none;stroke-width:1px;stroke-linecap:butt;stroke-linejoin:miter;stroke-opacity:1"
       d="m 4,161 v 2 H 3 v 1 H 2 v 11 h 3 v 2 H 2 v 2 h 3 v 2 h 1 v 1 h 1 v 1 h 2 v -1 h 1 v -1 h 1 v -2 h 1 v 5 H 4 v -3 H 2 v 7 h 1 v 1 h 1 v 2 h 2 v -2 h 1 v -1 h 2 v 1 h 1 v 2 h 2 v -2 h 1 v -1 h 1 v -11 h -3 v -2 h 3 v -2 h -3 v -2 h -1 v -1 H 9 v -1 H 7 v 1 H 6 v 1 H 5 v 2 H 4 v -5 h 8 v 3 h 2 v -7 h -1 v -1 h -1 v -2 h -2 v 2 H 9 v 1 H 7 v -1 H 6 v -2 z m 0,4 h 2 v 1 H 4 Z m 6,0 h 2 v 1 h -2 z m -3,7 h 2 v 2 H 7 Z m 0,6 h 2 v 2 H 7 Z m -3,8 h 2 v 1 H 4 Z m 6,0 h 2 v 1 h -2 z" />
    <path
       id="path2416-9"
       style="fill:#ffffff;fill-opacity:1;stroke:none;stroke-width:1px;stroke-linecap:butt;stroke-linejoin:miter;stroke-opacity:1"
       d="m 276,225 v 2 h -1 v 1 h -1 v 11 h 3 v 2 h -3 v 2 h 3 v 2 h 1 v 1 h 1 v 1 h 2 v -1 h 1 v -1 h 1 v -2 h 1 v 5 h -8 v -3 h -2 v 7 h 1 v 1 h 1 v 2 h 2 v -2 h 1 v -1 h 2 v 1 h 1 v 2 h 2 v -2 h 1 v -1 h 1 v -11 h -3 v -2 h 3 v -2 h -3 v -2 h -1 v -1 h -1 v -1 h -2 v 1 h -1 v 1 h -1 v 2 h -1 v -5 h 8 v 3 h 2 v -7 h -1 v -1 h -1 v -2 h -2 v 2 h -1 v 1 h -2 v -1 h -1 v -2 z m 0,4 h 2 v 1 h -2 z m 6,0 h 2 v 1 h -2 z m -3,7 h 2 v 2 h -2 z m 0,6 h 2 v 2 h -2 z m -3,8 h 2 v 1 h -2 z m 6,0 h 2 v 1 h -2 z" />
    <path
       id="path2416-8"
       style="fill:#ffffff;fill-opacity:1;stroke:none;stroke-width:1px;stroke-linecap:butt;stroke-linejoin:miter;stroke-opacity:1"
       d="m 127,276 h -2 v -1 h -1 v -1 h -11 v 3 h -2 v -3 h -2 v 3 h -2 v 1 h -1 v 1 h -1 v 2 h 1 v 1 h 1 v 1 h 2 v 1 h -5 v -8 h 3 v -2 h -7 v 1 h -1 v 1 h -2 v 2 h 2 v 1 h 1 v 2 h -1 v 1 h -2 v 2 h 2 v 1 h 1 v 1 h 11 v -3 h 2 v 3 h 2 v -3 h 2 v -1 h 1 v -1 h 1 v -2 h -1 v -1 h -1 v -1 h -2 v -1 h 5 v 8 h -3 v 2 h 7 v -1 h 1 v -1 h 2 v -2 h -2 v -1 h -1 v -2 h 1 v -1 h 2 z m -4,0 v 2 h -1 v -2 z m 0,6 v 2 h -1 v -2 z m -7,-3 v 2 h -2 v -2 z m -6,0 v 2 h -2 v -2 z m -8,-3 v 2 h -1 v -2 z m 0,6 v 2 h -1 v -2 z" />
    <path
       id="path2416-8-9"
       style="fill:#ffffff;fill-opacity:1;stroke:none;stroke-width:1px;stroke-linecap:butt;stroke-linejoin:miter;stroke-opacity:1"
       d="M 63,5 H 61 V 4 H 60 V 3 H 49 V 6 H 47 V 3 h -2 v 3 h -2 v 1 h -1 v 1 h -1 v 2 h 1 v 1 h 1 v 1 h 2 v 1 H 40 V 5 h 3 V 3 h -7 v 1 h -1 v 1 h -2 v 2 h 2 v 1 h 1 v 2 h -1 v 1 h -2 v 2 h 2 v 1 h 1 v 1 h 11 v -3 h 2 v 3 h 2 v -3 h 2 v -1 h 1 v -1 h 1 V 8 H 54 V 7 H 53 V 6 H 51 V 5 h 5 v 8 h -3 v 2 h 7 v -1 h 1 v -1 h 2 V 11 H 61 V 10 H 60 V 8 h 1 V 7 h 2 z M 59,5 V 7 H 58 V 5 Z m 0,6 v 2 H 58 V 11 Z M 52,8 v 2 H 50 V 8 Z m -6,0 v 2 H 44 V 8 Z M 38,5 V 7 H 37 V 5 Z m 0,6 v 2 h -1 v -2 z" />
    <path
       id="path3515"
       style="fill:#ffffff;fill-opacity:1;stroke:none;stroke-width:1px;stroke-linecap:butt;stroke-linejoin:miter;stroke-opacity:1"
       d="m 6,192 v 1 H 5 v 1 H 4 v 1 h 1 v 1 h 1 v 2 H 4 v -1 H 3 v -1 H 2 v 1 H 1 v 1 H 0 v 1 h 1 v 2 H 0 v 1 h 1 v 1 h 1 v 1 h 1 v -1 h 1 v -1 h 2 v 2 H 5 v 1 H 4 v 1 h 1 v 1 h 1 v 1 h 1 v -1 h 2 v 1 h 1 v -1 h 1 v -1 h 1 v -1 h -1 v -1 h -1 v -2 h 2 v 1 h 1 v 1 h 1 v -1 h 1 v -1 h 1 v -1 h -1 v -2 h 1 v -1 h -1 v -1 h -1 v -1 h -1 v 1 h -1 v 1 h -2 v -2 h 1 v -1 h 1 v -1 h -1 v -1 h -1 v -1 H 9 v 1 H 7 v -1 z m 0,2 h 1 v 1 H 6 Z m 3,0 h 1 v 1 H 9 Z m -2,2 h 2 v 3 h 3 v 2 H 9 v 3 H 7 v -3 H 4 v -2 h 3 z m -5,2 h 1 v 1 H 2 Z m 11,0 h 1 v 1 h -1 z m -11,3 h 1 v 1 H 2 Z m 11,0 h 1 v 1 h -1 z m -7,4 h 1 v 1 H 6 Z m 3,0 h 1 v 1 H 9 Z" />
    <path
       id="path3515-0"
       style="fill:#ffffff;fill-opacity:1;stroke:none;stroke-width:1px;stroke-linecap:butt;stroke-linejoin:miter;stroke-opacity:1"
       d="m 22,0 v 1 h -1 v 1 h -1 v 1 h 1 v 1 h 1 V 6 H 20 V 5 H 19 V 4 h -1 v 1 h -1 v 1 h -1 v 1 h 1 v 2 h -1 v 1 h 1 v 1 h 1 v 1 h 1 v -1 h 1 v -1 h 2 v 2 h -1 v 1 h -1 v 1 h 1 v 1 h 1 v 1 h 1 v -1 h 2 v 1 h 1 v -1 h 1 v -1 h 1 v -1 h -1 v -1 h -1 v -2 h 2 v 1 h 1 v 1 h 1 v -1 h 1 v -1 h 1 V 9 H 31 V 7 h 1 V 6 H 31 V 5 H 30 V 4 H 29 V 5 H 28 V 6 H 26 V 4 h 1 V 3 h 1 V 2 H 27 V 1 H 26 V 0 H 25 V 1 H 23 V 0 Z m 0,2 h 1 v 1 h -1 z m 3,0 h 1 v 1 h -1 z m -2,2 h 2 v 3 h 3 v 2 h -3 v 3 H 23 V 9 H 20 V 7 h 3 z m -5,2 h 1 v 1 h -1 z m 11,0 h 1 V 7 H 29 Z M 18,9 h 1 v 1 h -1 z m 11,0 h 1 v 1 h -1 z m -7,4 h 1 v 1 h -1 z m 3,0 h 1 v 1 h -1 z" />
    <path
       id="path3515-4"
       style="fill:#ffffff;fill-opacity:1;stroke:none;stroke-width:1px;stroke-linecap:butt;stroke-linejoin:miter;stroke-opacity:1"
       d="m 278,0 v 1 h -1 v 1 h -1 v 1 h 1 v 1 h 1 v 2 h -2 V 5 h -1 V 4 h -1 v 1 h -1 v 1 h -1 v 1 h 1 v 2 h -1 v 1 h 1 v 1 h 1 v 1 h 1 v -1 h 1 v -1 h 2 v 2 h -1 v 1 h -1 v 1 h 1 v 1 h 1 v 1 h 1 v -1 h 2 v 1 h 1 v -1 h 1 v -1 h 1 v -1 h -1 v -1 h -1 v -2 h 2 v 1 h 1 v 1 h 1 v -1 h 1 v -1 h 1 V 9 h -1 V 7 h 1 V 6 h -1 V 5 h -1 V 4 h -1 v 1 h -1 v 1 h -2 V 4 h 1 V 3 h 1 V 2 h -1 V 1 h -1 V 0 h -1 v 1 h -2 V 0 Z m 0,2 h 1 v 1 h -1 z m 3,0 h 1 v 1 h -1 z m -2,2 h 2 v 3 h 3 v 2 h -3 v 3 h -2 V 9 h -3 V 7 h 3 z m -5,2 h 1 v 1 h -1 z m 11,0 h 1 v 1 h -1 z m -11,3 h 1 v 1 h -1 z m 11,0 h 1 v 1 h -1 z m -7,4 h 1 v 1 h -1 z m 3,0 h 1 v 1 h -1 z" />
    <path
       id="path3515-6"
       style="fill:#ffffff;fill-opacity:1;stroke:none;stroke-width:1px;stroke-linecap:butt;stroke-linejoin:miter;stroke-opacity:1"
       d="m 278,208 v 1 h -1 v 1 h -1 v 1 h 1 v 1 h 1 v 2 h -2 v -1 h -1 v -1 h -1 v 1 h -1 v 1 h -1 v 1 h 1 v 2 h -1 v 1 h 1 v 1 h 1 v 1 h 1 v -1 h 1 v -1 h 2 v 2 h -1 v 1 h -1 v 1 h 1 v 1 h 1 v 1 h 1 v -1 h 2 v 1 h 1 v -1 h 1 v -1 h 1 v -1 h -1 v -1 h -1 v -2 h 2 v 1 h 1 v 1 h 1 v -1 h 1 v -1 h 1 v -1 h -1 v -2 h 1 v -1 h -1 v -1 h -1 v -1 h -1 v 1 h -1 v 1 h -2 v -2 h 1 v -1 h 1 v -1 h -1 v -1 h -1 v -1 h -1 v 1 h -2 v -1 z m 0,2 h 1 v 1 h -1 z m 3,0 h 1 v 1 h -1 z m -2,2 h 2 v 3 h 3 v 2 h -3 v 3 h -2 v -3 h -3 v -2 h 3 z m -5,2 h 1 v 1 h -1 z m 11,0 h 1 v 1 h -1 z m -11,3 h 1 v 1 h -1 z m 11,0 h 1 v 1 h -1 z m -7,4 h 1 v 1 h -1 z m 3,0 h 1 v 1 h -1 z" />
    <path
       id="path3515-5"
       style="fill:#ffffff;fill-opacity:1;stroke:none;stroke-width:1px;stroke-linecap:butt;stroke-linejoin:miter;stroke-opacity:1"
       d="m 134,272 v 1 h -1 v 1 h -1 v 1 h 1 v 1 h 1 v 2 h -2 v -1 h -1 v -1 h -1 v 1 h -1 v 1 h -1 v 1 h 1 v 2 h -1 v 1 h 1 v 1 h 1 v 1 h 1 v -1 h 1 v -1 h 2 v 2 h -1 v 1 h -1 v 1 h 1 v 1 h 1 v 1 h 1 v -1 h 2 v 1 h 1 v -1 h 1 v -1 h 1 v -1 h -1 v -1 h -1 v -2 h 2 v 1 h 1 v 1 h 1 v -1 h 1 v -1 h 1 v -1 h -1 v -2 h 1 v -1 h -1 v -1 h -1 v -1 h -1 v 1 h -1 v 1 h -2 v -2 h 1 v -1 h 1 v -1 h -1 v -1 h -1 v -1 h -1 v 1 h -2 v -1 z m 0,2 h 1 v 1 h -1 z m 3,0 h 1 v 1 h -1 z m -2,2 h 2 v 3 h 3 v 2 h -3 v 3 h -2 v -3 h -3 v -2 h 3 z m -5,2 h 1 v 1 h -1 z m 11,0 h 1 v 1 h -1 z m -11,3 h 1 v 1 h -1 z m 11,0 h 1 v 1 h -1 z m -7,4 h 1 v 1 h -1 z m 3,0 h 1 v 1 h -1 z" />
    <path
       id="path4248"
       style="fill:#ffffff;fill-opacity:1;stroke:none;stroke-width:1px;stroke-linecap:butt;stroke-linejoin:miter;stroke-opacity:1"
       d="m 1,208 v 3 h 1 v -1 h 1 v -1 h 2 v 1 H 4 v 1 H 3 v 1 H 2 v 1 H 1 v 2 h 2 v 1 H 2 v 1 H 1 v 1 h 2 v 1 H 2 v 1 H 1 v 1 h 2 v 1 H 2 v 1 H 1 v 1 h 15 v -2 H 5 v -7 h 2 v 6 h 9 v -2 H 9 v -3 h 1 v -1 h 1 v 2 h -1 v 1 h 2 v -5 h -1 v -1 h -1 v -1 H 9 v -1 H 8 v -1 h 2 v 1 h 1 v 1 h 1 v -3 H 7 v 2 H 6 v -2 z m 3,4 h 1 v 1 H 4 Z m 3,0 h 1 v 1 H 7 Z" />
    <path
       id="path4248-7"
       style="fill:#ffffff;fill-opacity:1;stroke:none;stroke-width:1px;stroke-linecap:butt;stroke-linejoin:miter;stroke-opacity:1"
       d="m 256,0 v 3 h 1 V 2 h 1 V 1 h 2 v 1 h -1 v 1 h -1 v 1 h -1 v 1 h -1 v 2 h 2 v 1 h -1 v 1 h -1 v 1 h 2 v 1 h -1 v 1 h -1 v 1 h 2 v 1 h -1 v 1 h -1 v 1 h 15 V 14 H 260 V 7 h 2 v 6 h 9 v -2 h -7 V 8 h 1 V 7 h 1 v 2 h -1 v 1 h 2 V 5 h -1 V 4 h -1 V 3 h -1 V 2 h -1 V 1 h 2 v 1 h 1 v 1 h 1 V 0 h -5 v 2 h -1 V 0 Z m 3,4 h 1 v 1 h -1 z m 3,0 h 1 v 1 h -1 z" />
    <path
       id="path4248-4"
       style="fill:#ffffff;fill-opacity:1;stroke:none;stroke-width:1px;stroke-linecap:butt;stroke-linejoin:miter;stroke-opacity:1"
       d="m 272,192 v 3 h 1 v -1 h 1 v -1 h 2 v 1 h -1 v 1 h -1 v 1 h -1 v 1 h -1 v 2 h 2 v 1 h -1 v 1 h -1 v 1 h 2 v 1 h -1 v 1 h -1 v 1 h 2 v 1 h -1 v 1 h -1 v 1 h 15 v -2 h -11 v -7 h 2 v 6 h 9 v -2 h -7 v -3 h 1 v -1 h 1 v 2 h -1 v 1 h 2 v -5 h -1 v -1 h -1 v -1 h -1 v -1 h -1 v -1 h 2 v 1 h 1 v 1 h 1 v -3 h -5 v 2 h -1 v -2 z m 3,4 h 1 v 1 h -1 z m 3,0 h 1 v 1 h -1 z" />
    <path
       id="path4248-71"
       style="fill:#ffffff;fill-opacity:1;stroke:none;stroke-width:1px;stroke-linecap:butt;stroke-linejoin:miter;stroke-opacity:1"
       d="m 145,273 v 3 h 1 v -1 h 1 v -1 h 2 v 1 h -1 v 1 h -1 v 1 h -1 v 1 h -1 v 2 h 2 v 1 h -1 v 1 h -1 v 1 h 2 v 1 h -1 v 1 h -1 v 1 h 2 v 1 h -1 v 1 h -1 v 1 h 15 v -2 h -11 v -7 h 2 v 6 h 9 v -2 h -7 v -3 h 1 v -1 h 1 v 2 h -1 v 1 h 2 v -5 h -1 v -1 h -1 v -1 h -1 v -1 h -1 v -1 h 2 v 1 h 1 v 1 h 1 v -3 h -5 v 2 h -1 v -2 z m 3,4 h 1 v 1 h -1 z m 3,0 h 1 v 1 h -1 z" />
    <path
       id="path4722"
       style="fill:#ffffff;fill-opacity:1;stroke:none;stroke-width:1px;stroke-linecap:butt;stroke-linejoin:miter;stroke-opacity:1"
       d="m 1,225 v 5 h 3 v 1 H 1 v 1 h 4 v 2 H 1 v 1 h 4 v 3 H 1 v 1 h 7 v -1 h 2 v 1 h 3 v -1 h 1 v -2 h 1 v -3 h -1 v -1 h -1 v 2 h -3 v -1 H 9 v -2 h 1 v -1 h 1 v -1 h -1 v -1 H 9 v -1 H 8 v -1 H 7 v 1 H 6 v -1 H 5 v 3 H 2 v -3 h 1 v 1 h 1 v -2 z m 12,7 v -3 h -1 v 3 z m 0,-3 h 1 v 1 h 1 v -2 h -2 z m -6,-1 h 1 v 1 h 1 v 1 H 8 v 1 H 7 v -1 H 6 v -1 h 1 z m 0,1 v 1 h 1 v -1 z m 0,3 h 1 v 1 H 7 v 1 H 6 v -1 h 1 z m 4,3 h 1 v 1 h 1 v 1 h -1 v 1 h -1 v -1 h -1 v -1 h 1 z m -4,1 h 1 v 1 H 7 Z" />
    <path
       id="path4722-5"
       style="fill:#ffffff;fill-opacity:1;stroke:none;stroke-width:1px;stroke-linecap:butt;stroke-linejoin:miter;stroke-opacity:1"
       d="m 161,273 v 5 h 3 v 1 h -3 v 1 h 4 v 2 h -4 v 1 h 4 v 3 h -4 v 1 h 7 v -1 h 2 v 1 h 3 v -1 h 1 v -2 h 1 v -3 h -1 v -1 h -1 v 2 h -3 v -1 h -1 v -2 h 1 v -1 h 1 v -1 h -1 v -1 h -1 v -1 h -1 v -1 h -1 v 1 h -1 v -1 h -1 v 3 h -3 v -3 h 1 v 1 h 1 v -2 z m 12,7 v -3 h -1 v 3 z m 0,-3 h 1 v 1 h 1 v -2 h -2 z m -6,-1 h 1 v 1 h 1 v 1 h -1 v 1 h -1 v -1 h -1 v -1 h 1 z m 0,1 v 1 h 1 v -1 z m 0,3 h 1 v 1 h -1 v 1 h -1 v -1 h 1 z m 4,3 h 1 v 1 h 1 v 1 h -1 v 1 h -1 v -1 h -1 v -1 h 1 z m -4,1 h 1 v 1 h -1 z" />
    <path
       id="path4722-7"
       style="fill:#ffffff;fill-opacity:1;stroke:none;stroke-width:1px;stroke-linecap:butt;stroke-linejoin:miter;stroke-opacity:1"
       d="m 273,177 v 5 h 3 v 1 h -3 v 1 h 4 v 2 h -4 v 1 h 4 v 3 h -4 v 1 h 7 v -1 h 2 v 1 h 3 v -1 h 1 v -2 h 1 v -3 h -1 v -1 h -1 v 2 h -3 v -1 h -1 v -2 h 1 v -1 h 1 v -1 h -1 v -1 h -1 v -1 h -1 v -1 h -1 v 1 h -1 v -1 h -1 v 3 h -3 v -3 h 1 v 1 h 1 v -2 z m 12,7 v -3 h -1 v 3 z m 0,-3 h 1 v 1 h 1 v -2 h -2 z m -6,-1 h 1 v 1 h 1 v 1 h -1 v 1 h -1 v -1 h -1 v -1 h 1 z m 0,1 v 1 h 1 v -1 z m 0,3 h 1 v 1 h -1 v 1 h -1 v -1 h 1 z m 4,3 h 1 v 1 h 1 v 1 h -1 v 1 h -1 v -1 h -1 v -1 h 1 z m -4,1 h 1 v 1 h -1 z" />
    <path
       id="path4722-0"
       style="fill:#ffffff;fill-opacity:1;stroke:none;stroke-width:1px;stroke-linecap:butt;stroke-linejoin:miter;stroke-opacity:1"
       d="m 241,1 v 5 h 3 v 1 h -3 v 1 h 4 v 2 h -4 v 1 h 4 v 3 h -4 v 1 h 7 v -1 h 2 v 1 h 3 v -1 h 1 v -2 h 1 V 9 h -1 V 8 h -1 v 2 h -3 V 9 h -1 V 7 h 1 V 6 h 1 V 5 h -1 V 4 h -1 V 3 h -1 V 2 h -1 v 1 h -1 V 2 h -1 v 3 h -3 V 2 h 1 v 1 h 1 V 1 Z m 12,7 V 5 h -1 v 3 z m 0,-3 h 1 v 1 h 1 V 4 h -2 z m -6,-1 h 1 v 1 h 1 v 1 h -1 v 1 h -1 V 6 h -1 V 5 h 1 z m 0,1 v 1 h 1 V 5 Z m 0,3 h 1 v 1 h -1 v 1 h -1 V 9 h 1 z m 4,3 h 1 v 1 h 1 v 1 h -1 v 1 h -1 v -1 h -1 v -1 h 1 z m -4,1 h 1 v 1 h -1 z" />
    <path
       id="path5361"
       style="fill:#ffffff;fill-opacity:1;stroke:none;stroke-width:1px;stroke-linecap:butt;stroke-linejoin:miter;stroke-opacity:1"
       d="m 272,160 v 6 h 1 v -1 h 1 v -1 h 1 v -1 h 1 v -1 h 1 v -1 h 1 v -1 z m 10,1 v 5 h -5 v 5 h -5 v 5 h 15 v -15 z m 3,6 h 1 v 8 h -8 v -1 h 1 v -1 h 1 v -1 h 1 v -1 h 1 v -1 h 1 v -1 h 1 v -1 h 1 z" />
    <path
       id="path5361-1"
       style="fill:#ffffff;fill-opacity:1;stroke:none;stroke-width:1px;stroke-linecap:butt;stroke-linejoin:miter;stroke-opacity:1"
       d="m 225,0 v 6 h 1 V 5 h 1 V 4 h 1 V 3 h 1 V 2 h 1 V 1 h 1 V 0 Z m 10,1 v 5 h -5 v 5 h -5 v 5 h 15 V 1 Z m 3,6 h 1 v 8 h -8 v -1 h 1 v -1 h 1 v -1 h 1 v -1 h 1 v -1 h 1 V 9 h 1 V 8 h 1 z" />
    <path
       id="path5361-2"
       style="fill:#ffffff;fill-opacity:1;stroke:none;stroke-width:1px;stroke-linecap:butt;stroke-linejoin:miter;stroke-opacity:1"
       d="m 1,240 v 6 h 1 v -1 h 1 v -1 h 1 v -1 h 1 v -1 h 1 v -1 h 1 v -1 z m 10,1 v 5 H 6 v 5 H 1 v 5 h 15 v -15 z m 3,6 h 1 v 8 H 7 v -1 h 1 v -1 h 1 v -1 h 1 v -1 h 1 v -1 h 1 v -1 h 1 v -1 h 1 z" />
    <path
       id="path5361-0"
       style="fill:#ffffff;fill-opacity:1;stroke:none;stroke-width:1px;stroke-linecap:butt;stroke-linejoin:miter;stroke-opacity:1"
       d="m 176,272 v 6 h 1 v -1 h 1 v -1 h 1 v -1 h 1 v -1 h 1 v -1 h 1 v -1 z m 10,1 v 5 h -5 v 5 h -5 v 5 h 15 v -15 z m 3,6 h 1 v 8 h -8 v -1 h 1 v -1 h 1 v -1 h 1 v -1 h 1 v -1 h 1 v -1 h 1 v -1 h 1 z" />
  </g>
</svg>
